<?xml version="1.0" standalone="no"?>
<!DOCTYPE svg PUBLIC "-//W3C//DTD SVG 20010904//EN"
 "http://www.w3.org/TR/2001/REC-SVG-20010904/DTD/svg10.dtd">
<svg version="1.0" xmlns="http://www.w3.org/2000/svg"
 width="147.000000pt" height="99.000000pt" viewBox="0 0 147.000000 99.000000"
 preserveAspectRatio="xMidYMid meet">

<g transform="translate(0.000000,99.000000) scale(0.100000,-0.100000)"
fill="#0070D1" stroke="none">
<path d="M653 826 c-166 -52 -274 -234 -243 -408 15 -78 40 -128 97 -189 190
-203 528 -119 607 150 31 105 13 212 -50 306 -67 101 -170 155 -294 154 -41 0
-94 -6 -117 -13z m177 -199 c36 -18 48 -30 59 -63 19 -56 0 -98 -47 -102 l-32
-3 0 65 c0 36 -4 68 -10 71 -6 4 -10 -25 -10 -79 l0 -84 37 10 c64 17 163 -5
163 -37 0 -18 -33 -35 -137 -70 l-82 -27 -44 21 c-24 11 -60 21 -80 21 -47 0
-107 24 -107 43 0 16 4 18 95 52 l60 23 3 97 3 97 42 -6 c23 -4 62 -17 87 -29z"/>
<path d="M645 400 c-41 -19 -31 -25 24 -14 17 4 31 13 31 20 0 18 -6 17 -55
-6z"/>
<path d="M838 401 c-27 -9 -48 -21 -48 -28 0 -8 18 -6 60 9 33 12 60 26 60 30
0 11 -17 9 -72 -11z"/>
</g>
</svg>
