<?xml version="1.0" standalone="no"?>
<!DOCTYPE svg PUBLIC "-//W3C//DTD SVG 20010904//EN"
 "http://www.w3.org/TR/2001/REC-SVG-20010904/DTD/svg10.dtd">
<svg version="1.0" xmlns="http://www.w3.org/2000/svg"
 width="145.000000pt" height="106.000000pt" viewBox="0 0 145.000000 106.000000"
 preserveAspectRatio="xMidYMid meet">

<g transform="translate(0.000000,106.000000) scale(0.100000,-0.100000)"
fill="#0070D1" stroke="none">
<path d="M670 848 c-80 -12 -152 -51 -209 -113 -129 -141 -129 -349 0 -490
192 -210 533 -130 613 144 20 69 20 133 0 201 -52 176 -223 285 -404 258z
m130 -163 c39 -20 60 -53 60 -93 0 -45 -13 -66 -55 -91 -28 -16 -35 -27 -35
-51 0 -29 -2 -30 -45 -30 l-45 0 0 45 c0 41 3 47 39 69 46 30 53 39 45 60 -11
28 -55 32 -75 8 -13 -16 -28 -22 -59 -22 -42 0 -42 0 -36 32 3 17 12 38 19 46
33 40 134 55 187 27z m-42 -311 c24 -17 30 -62 10 -82 -17 -17 -64 -15 -82 4
-22 21 -20 50 4 74 24 24 38 25 68 4z"/>
</g>
</svg>
